<?xml version="1.0" standalone="no"?><!DOCTYPE svg PUBLIC "-//W3C//DTD SVG 1.1//EN" "http://www.w3.org/Graphics/SVG/1.1/DTD/svg11.dtd"><svg t="1770113945239" class="icon" viewBox="0 0 1024 1024" version="1.1" xmlns="http://www.w3.org/2000/svg" p-id="11601" xmlns:xlink="http://www.w3.org/1999/xlink" width="200" height="200"><path d="M892.928 1019.9552H127.8976A127.2832 127.2832 0 0 1 0.8704 892.928V127.8976A127.2832 127.2832 0 0 1 127.8976 0.8704H892.928a127.2832 127.2832 0 0 1 127.0272 127.0272V892.928a127.2832 127.2832 0 0 1-127.0272 127.0272z" fill="#00C19A" p-id="11602" data-spm-anchor-id="a313x.search_index.0.i3.4b713a81zJA5yC" class="selected"></path><path d="M534.1696 622.4896c0 71.3728-72.704 129.1264-163.0208 129.1264-19.0464 0-36.7104-2.7648-53.7088-7.4752-8.1408-2.048-47.5648 30.5664-55.04 27.8528-8.1408-3.4304 14.336-44.1856 6.8096-48.2816-37.376-23.7568-61.1328-59.7504-61.1328-101.2224 0-71.3216 72.704-129.024 163.072-129.024 90.3168 0 163.0208 57.7024 163.0208 129.024z" fill="#8CE2AD" p-id="11603"></path><path d="M805.9392 483.2256c0 69.3248-40.7552 130.4576-103.2704 168.448-10.1888 6.144 33.28 67.9936 21.76 72.704-10.9056 4.8128-76.8-47.5136-89.0368-44.1344a288.1536 288.1536 0 0 1-77.4144 10.24c-137.216 0-248.0128-93.1328-248.0128-207.2576 0-114.176 110.7456-207.2064 248.0128-207.2064 137.216 0 247.9616 93.0816 247.9616 207.2064z" fill="#FFFFFF" p-id="11604" data-spm-anchor-id="a313x.search_index.0.i2.4b713a81zJA5yC" class="selected"></path><path d="M445.8496 445.8496a27.136 27.136 0 1 0 54.3744 0 27.136 27.136 0 0 0-54.3744 0zM290.9696 595.3536a19.0464 19.0464 0 1 0 38.0416 0 19.0464 19.0464 0 0 0-38.0416 0zM615.7312 445.8496a27.136 27.136 0 1 0 54.3232 0 27.136 27.136 0 0 0-54.3232 0z" fill="#3FCF77" p-id="11605"></path></svg>